<?xml version="1.0" encoding="utf-8"?>
<!-- Generator: Adobe Illustrator 18.0.0, SVG Export Plug-In . SVG Version: 6.00 Build 0)  -->
<!DOCTYPE svg PUBLIC "-//W3C//DTD SVG 1.1//EN" "http://www.w3.org/Graphics/SVG/1.1/DTD/svg11.dtd">
<svg version="1.1" id="Layer_1" xmlns="http://www.w3.org/2000/svg" xmlns:xlink="http://www.w3.org/1999/xlink" x="0px" y="0px"
	 viewBox="0 0 238 70.667" enable-background="new 0 0 238 70.667" xml:space="preserve">
<path fill="#D1E4EC" d="M222.309,4.651H15.682c-6.371,0-11.535,5.164-11.535,11.535v39.077c0,6.371,5.164,11.535,11.535,11.535
	h206.627c6.371,0,11.535-5.164,11.535-11.535V16.186C233.844,9.816,228.68,4.651,222.309,4.651z"/>
<g>
	<g>
		<path fill="#D1E4EC" d="M482.976,163.465H276.349c-6.371,0-11.535-5.164-11.535-11.535v-39.077
			c0-6.371,5.164-11.535,11.535-11.535h206.627c6.371,0,11.535,5.164,11.535,11.535v39.077
			C494.511,158.3,489.347,163.465,482.976,163.465z"/>
	</g>
	<g>
		<path fill="#FFFFFF" d="M327.044,115.773h20.708v6.298h-13.05v7.759h12.193v6.248h-12.193v13.654h-7.658V115.773z"/>
		<path fill="#FFFFFF" d="M353.549,116.227c2.469-0.403,6.097-0.705,10.228-0.705c5.039,0,8.565,0.756,10.984,2.67
			c2.066,1.612,3.174,4.031,3.174,7.154c0,4.283-3.073,7.255-5.996,8.314v0.15c2.368,0.958,3.678,3.175,4.535,6.299
			c1.058,3.879,2.065,8.313,2.721,9.623h-7.86c-0.504-1.008-1.361-3.729-2.318-7.91c-0.958-4.283-2.418-5.392-5.593-5.441h-2.267
			v13.352h-7.608V116.227z M361.157,130.838h3.023c3.829,0,6.097-1.914,6.097-4.887c0-3.074-2.116-4.686-5.643-4.686
			c-1.864,0-2.922,0.101-3.477,0.252V130.838z"/>
		<path fill="#FFFFFF" d="M403.634,135.373h-12.495v8.062h13.957v6.298h-21.615v-33.959h20.909v6.298h-13.251v7.054h12.495V135.373z
			"/>
		<path fill="#FFFFFF" d="M430.544,135.373h-12.495v8.062h13.956v6.298H410.39v-33.959h20.909v6.298h-13.251v7.054h12.495V135.373z"
			/>
	</g>
</g>
<path fill="#63B6E6" d="M25.633,233.002c0,0.204-0.001,170.139-0.003,170.342c-0.328,36.583-30.085,32.041-66.745,32.041
	c-36.574,0-66.277,4.681-66.742-31.783c-0.004-0.289-0.006-170.31-0.006-170.6c0-36.864,29.884-66.748,66.748-66.748
	S25.633,196.138,25.633,233.002z"/>
<path fill="#1B7AA1" d="M-180.679,230.244c0,0.204-0.001,222.033-0.003,222.236c-0.328,36.583-30.085,32.041-66.745,32.041
	c-36.574,0-66.277,4.681-66.742-31.783c-0.004-0.289-0.006-222.204-0.006-222.494c0-36.864,29.884-66.748,66.748-66.748
	S-180.679,193.38-180.679,230.244z"/>
<text transform="matrix(1 0 0 1 71.3327 47.7943)" fill="#FFFFFF" font-family="'MyriadPro-Bold'" font-size="42.8186">FREE</text>
</svg>
