<?xml version="1.0" encoding="utf-8"?>
<!-- Generator: Adobe Illustrator 18.0.0, SVG Export Plug-In . SVG Version: 6.00 Build 0)  -->
<!DOCTYPE svg PUBLIC "-//W3C//DTD SVG 1.1//EN" "http://www.w3.org/Graphics/SVG/1.1/DTD/svg11.dtd">
<svg version="1.1" id="Layer_1" xmlns="http://www.w3.org/2000/svg" xmlns:xlink="http://www.w3.org/1999/xlink" x="0px" y="0px"
	 viewBox="0 0 36 36.5" enable-background="new 0 0 36 36.5" xml:space="preserve">
<g>
	<g>
		<path fill="#1D7AA2" d="M124.391-35.175v-29.081c0-0.82-0.665-1.486-1.486-1.486h-2.65H95.959h-2.651
			c-0.818,0-1.481,0.661-1.485,1.479v26.438l-0.001,2.653c0.001,0.819,0.666,1.483,1.486,1.483h16.437v-12.868h-4.243v-4.434h4.243
			v-4.815c0-2.885,2.616-4.824,4.727-4.824h4.749v4.034h-2.191c-1.08,0-2.519,0.877-2.519,1.954v3.651h4.279v4.434h-4.279v12.868
			h5.744h2.65C123.726-33.689,124.391-34.354,124.391-35.175z"/>
	</g>
</g>
<path fill="#64B6E6" d="M81.297-60.464c-1.275,0.566-2.646,0.948-4.084,1.12c1.468-0.88,2.595-2.273,3.126-3.934
	c-1.374,0.815-2.896,1.407-4.515,1.725c-1.297-1.382-3.145-2.245-5.19-2.245c-3.927,0-7.11,3.183-7.11,7.11
	c0,0.557,0.063,1.1,0.184,1.62c-5.909-0.297-11.149-3.127-14.656-7.429c-0.612,1.05-0.963,2.272-0.963,3.575
	c0,2.467,1.255,4.643,3.163,5.918c-1.166-0.037-2.262-0.357-3.221-0.889c-0.001,0.03-0.001,0.059-0.001,0.089
	c0,3.445,2.451,6.319,5.704,6.972c-0.597,0.162-1.225,0.249-1.873,0.249c-0.458,0-0.904-0.045-1.338-0.128
	c0.905,2.825,3.531,4.881,6.642,4.938c-2.433,1.907-5.499,3.044-8.831,3.044c-0.574,0-1.14-0.034-1.696-0.1
	c3.147,2.018,6.884,3.195,10.9,3.195c13.079,0,20.231-10.835,20.231-20.231c0-0.308-0.007-0.615-0.021-0.92
	C79.138-57.786,80.344-59.038,81.297-60.464z"/>
<path fill="#D2E4EC" d="M27.14,3.66h-14.3v7.76H8.45V3.68c-3.01,0.2-5.38,2.65-5.38,5.64v17.87c0,3.12,2.59,5.65,5.79,5.65h18.28
	c3.2,0,5.79-2.53,5.79-5.65V9.32C32.93,6.19,30.34,3.66,27.14,3.66z M18.94,25.59c-3.81,0-6.91-3.09-6.91-6.91s3.1-6.91,6.91-6.91
	c3.82,0,6.92,3.09,6.92,6.91S22.76,25.59,18.94,25.59z M29.82,12.42h-5.41V7.01h5.41V12.42z"/>
<g>
	<g>
		<path fill="#D2E4EC" d="M568.976,42.965H362.349c-6.371,0-11.535-5.164-11.535-11.535V-7.647c0-6.371,5.164-11.535,11.535-11.535
			h206.627c6.371,0,11.535,5.164,11.535,11.535V31.43C580.511,37.8,575.347,42.965,568.976,42.965z"/>
	</g>
	<g>
		<path fill="#FFFFFF" d="M413.044-4.727h20.708v6.298h-13.05V9.33h12.193v6.248h-12.193v13.654h-7.658V-4.727z"/>
		<path fill="#FFFFFF" d="M439.549-4.273c2.469-0.403,6.097-0.705,10.228-0.705c5.039,0,8.565,0.756,10.984,2.67
			c2.066,1.612,3.174,4.031,3.174,7.154c0,4.283-3.073,7.255-5.996,8.314v0.15c2.368,0.958,3.678,3.175,4.535,6.299
			c1.058,3.879,2.065,8.313,2.721,9.623h-7.86c-0.504-1.008-1.361-3.729-2.318-7.91c-0.958-4.283-2.418-5.392-5.593-5.441h-2.267
			v13.352h-7.608V-4.273z M447.157,10.338h3.023c3.829,0,6.097-1.914,6.097-4.887c0-3.074-2.116-4.686-5.643-4.686
			c-1.864,0-2.922,0.101-3.477,0.252V10.338z"/>
		<path fill="#FFFFFF" d="M489.634,14.873h-12.495v8.062h13.957v6.298h-21.615V-4.727h20.909v6.298h-13.251v7.054h12.495V14.873z"/>
		<path fill="#FFFFFF" d="M516.544,14.873h-12.495v8.062h13.956v6.298H496.39V-4.727h20.909v6.298h-13.251v7.054h12.495V14.873z"/>
	</g>
</g>
<path fill="#64B6E6" d="M112.633,145.502c0,0.204-0.001,170.139-0.003,170.342c-0.328,36.583-30.085,32.041-66.745,32.041
	c-36.574,0-66.277,4.681-66.742-31.783c-0.004-0.289-0.006-170.31-0.006-170.6c0-36.864,29.884-66.748,66.748-66.748
	S112.633,108.638,112.633,145.502z"/>
<path fill="#1D7AA2" d="M-94.679,109.744c0,0.204-0.001,222.033-0.003,222.236c-0.328,36.583-30.085,32.041-66.745,32.041
	c-36.574,0-66.277,4.681-66.742-31.783c-0.004-0.289-0.006-222.204-0.006-222.494c0-36.864,29.884-66.748,66.748-66.748
	S-94.679,72.88-94.679,109.744z"/>
</svg>
