<?xml version="1.0" encoding="utf-8"?>
<!-- Generator: Adobe Illustrator 18.0.0, SVG Export Plug-In . SVG Version: 6.00 Build 0)  -->
<!DOCTYPE svg PUBLIC "-//W3C//DTD SVG 1.1//EN" "http://www.w3.org/Graphics/SVG/1.1/DTD/svg11.dtd">
<svg version="1.1" id="Layer_1" xmlns="http://www.w3.org/2000/svg" xmlns:xlink="http://www.w3.org/1999/xlink" x="0px" y="0px"
	 viewBox="0 0 142 142" enable-background="new 0 0 142 142" xml:space="preserve">
<circle fill="#1D7AA2" cx="72" cy="70.4" r="66.7"/>
<text transform="matrix(1 0 0 1 30.5308 78.7036)" fill="#1D7AA2" font-family="'MyriadPro-Black'" font-size="30.568">Prices</text>
<path fill="#63B7E6" d="M505.3,73.7c0,0.2,0,170.1,0,170.3c-0.3,36.6-30.1,32-66.7,32c-36.6,0-66.3,4.7-66.7-31.8
	c0-0.3,0-170.3,0-170.6c0-36.9,29.9-66.7,66.7-66.7S505.3,36.8,505.3,73.7z"/>
<circle fill="#FFFFFF" cx="438.8" cy="73.4" r="53.7"/>
<text transform="matrix(1 0 0 1 397.2887 81.1709)" fill="#1D7AA2" font-family="'MyriadPro-Black'" font-size="30.568">Prices</text>
<path fill="#63B7E6" d="M-47.3,71.9c0,0.2,0,161.5,0,161.7c-0.3,36.6-30.1,32-66.7,32c-36.6,0-66.3,4.7-66.7-31.8
	c0-0.3,0-161.7,0-162c0-36.9,29.9-66.7,66.7-66.7S-47.3,35-47.3,71.9z"/>
<path fill="#1D7AA2" d="M299,70.9c0,0.2,0,222,0,222.2c-0.3,36.6-30.1,32-66.7,32c-36.6,0-66.3,4.7-66.7-31.8c0-0.3,0-222.2,0-222.5
	c0-36.9,29.9-66.7,66.7-66.7S299,34,299,70.9z"/>
<circle fill="#FFFFFF" cx="-113.6" cy="68.4" r="53.7"/>
<circle fill="#FFFFFF" cx="72" cy="70.4" r="53.7"/>
<text transform="matrix(1 0 0 1 -156.72 76.1709)" fill="#1D7AA2" font-family="'MyriadPro-Black'" font-size="30.568">Prices</text>
<text transform="matrix(1 0 0 1 30.5304 78.0369)" fill="#1D7AA2" font-family="'MyriadPro-Black'" font-size="30.568">Prices</text>
</svg>
