<?xml version="1.0" encoding="utf-8"?>
<!-- Generator: Adobe Illustrator 18.0.0, SVG Export Plug-In . SVG Version: 6.00 Build 0)  -->
<!DOCTYPE svg PUBLIC "-//W3C//DTD SVG 1.1//EN" "http://www.w3.org/Graphics/SVG/1.1/DTD/svg11.dtd">
<svg version="1.1" id="Layer_1" xmlns="http://www.w3.org/2000/svg" xmlns:xlink="http://www.w3.org/1999/xlink" x="0px" y="0px"
	 viewBox="0 0 414.6 202.4" enable-background="new 0 0 414.6 202.4" xml:space="preserve">
<g>
	<path fill="#F1F2F2" d="M404.4,200.4H10.9c-4,0-7.3-3.2-7.3-7.3V10.1c0-4,3.2-7.3,7.3-7.3h393.5c4,0,7.3,3.2,7.3,7.3v183.1
		C411.7,197.2,408.4,200.4,404.4,200.4z"/>
	<path fill="#27AAE1" d="M404.4,32.6H10.9c-4,0-7.3-3.2-7.3-7.3v-16c0-4,3.2-7.3,7.3-7.3h393.5c4,0,7.3,3.2,7.3,7.3v16
		C411.7,29.4,408.4,32.6,404.4,32.6z"/>
	<rect x="3.6" y="16.6" fill="#27AAE1" width="408" height="16"/>
</g>
</svg>
