<?xml version="1.0" encoding="utf-8"?>
<!-- Generator: Adobe Illustrator 18.0.0, SVG Export Plug-In . SVG Version: 6.00 Build 0)  -->
<!DOCTYPE svg PUBLIC "-//W3C//DTD SVG 1.1//EN" "http://www.w3.org/Graphics/SVG/1.1/DTD/svg11.dtd">
<svg version="1.1" id="Layer_1" xmlns="http://www.w3.org/2000/svg" xmlns:xlink="http://www.w3.org/1999/xlink" x="0px" y="0px"
	 viewBox="81 319 459 159" enable-background="new 81 319 459 159" xml:space="preserve">
<g>
	<path fill="#FFFFFF" d="M120.6,371.6l8.2,41.3c1.9,10.3,3.9,21.4,5.6,32.9h0.6c1.9-11.5,4.9-22.8,7.2-32.7l10.7-41.5h24.7
		l10.1,40.1c2.9,11.5,5.6,22.6,7.4,34.1h0.4c1.4-11.3,3.5-22.8,6-34.3l8.4-39.9h30.6l-30.8,100.6h-29.2L171,437
		c-2.7-9.9-4.5-18.9-6.6-31.5H164c-1.9,12.5-3.9,22-6.4,31.3l-10.1,35.4h-29.4L88.8,371.6H120.6z"/>
	<g>
		<path fill="#FFFFFF" d="M270.5,359.3c10.5,0,16.9-7,16.9-15.6c-0.2-8.8-6.4-15.6-16.5-15.6s-16.7,6.8-16.7,15.6
			C254.3,352.3,260.7,359.3,270.5,359.3z"/>
		<path fill="#D1E4EC" d="M314.5,359.3c10.5,0,16.9-7,16.9-15.6c-0.2-8.8-6.4-15.6-16.5-15.6s-16.7,6.8-16.7,15.6
			C298.3,352.3,304.7,359.3,314.5,359.3z"/>
		<path fill="#63B6E6" d="M358.5,359.3c10.5,0,16.9-7,16.9-15.6c-0.2-8.8-6.4-15.6-16.5-15.6s-16.7,6.8-16.7,15.6
			C342.3,352.3,348.7,359.3,358.5,359.3z"/>
		<path fill="#1B7AA1" d="M402.5,359.3c10.5,0,16.9-7,16.9-15.6c-0.2-8.8-6.4-15.6-16.5-15.6s-16.7,6.8-16.7,15.6
			C386.3,352.3,392.7,359.3,402.5,359.3z"/>
		<rect x="255.1" y="371.6" fill="#FFFFFF" width="31.3" height="100.6"/>
	</g>
	<path fill="#FFFFFF" d="M311.4,403.7c0-12.5-0.4-23-0.8-32.1h27.1l1.4,14h0.6c4.1-6.6,14.2-16.2,31-16.2c20.6,0,36,13.8,36,43.4
		v59.4h-31.3v-55.7c0-13-4.5-21.8-15.8-21.8c-8.6,0-13.8,6-16,11.7c-0.8,2.1-1,4.9-1,7.8v58h-31.3V403.7z"/>
	<path fill="#FFFFFF" d="M463.2,414h0.4c2.3-4.3,4.7-8.4,7.2-12.1l20.4-30.2h37.6l-36,40.7l41.1,59.8h-38.5L471,430.8l-7.8,9.9v31.5
		h-31.3v-146h31.3V414z"/>
</g>
<g>
	<g>
		<path fill="#D1E4EC" d="M-52,365.5h-206.6c-6.4,0-11.5-5.2-11.5-11.5v-39.1c0-6.4,5.2-11.5,11.5-11.5H-52
			c6.4,0,11.5,5.2,11.5,11.5v39.1C-40.5,360.3-45.7,365.5-52,365.5z"/>
	</g>
	<g>
		<path fill="#FFFFFF" d="M-208,317.8h20.7v6.3h-13v7.8h12.2v6.2h-12.2v13.7h-7.7V317.8z"/>
		<path fill="#FFFFFF" d="M-181.5,318.2c2.5-0.4,6.1-0.7,10.2-0.7c5,0,8.6,0.8,11,2.7c2.1,1.6,3.2,4,3.2,7.2c0,4.3-3.1,7.3-6,8.3
			v0.2c2.4,1,3.7,3.2,4.5,6.3c1.1,3.9,2.1,8.3,2.7,9.6h-7.9c-0.5-1-1.4-3.7-2.3-7.9c-1-4.3-2.4-5.4-5.6-5.4h-2.3v13.4h-7.6V318.2z
			 M-173.8,332.8h3c3.8,0,6.1-1.9,6.1-4.9c0-3.1-2.1-4.7-5.6-4.7c-1.9,0-2.9,0.1-3.5,0.3V332.8z"/>
		<path fill="#FFFFFF" d="M-131.4,337.4h-12.5v8.1h14v6.3h-21.6v-34h20.9v6.3h-13.3v7.1h12.5V337.4z"/>
		<path fill="#FFFFFF" d="M-104.5,337.4H-117v8.1h14v6.3h-21.6v-34h20.9v6.3H-117v7.1h12.5V337.4z"/>
	</g>
</g>
<path fill="#63B6E6" d="M-509.4,435c0,0.2,0,170.1,0,170.3c-0.3,36.6-30.1,32-66.7,32c-36.6,0-66.3,4.7-66.7-31.8
	c0-0.3,0-170.3,0-170.6c0-36.9,29.9-66.7,66.7-66.7S-509.4,398.1-509.4,435z"/>
<path fill="#1B7AA1" d="M-715.7,432.2c0,0.2,0,222,0,222.2c-0.3,36.6-30.1,32-66.7,32c-36.6,0-66.3,4.7-66.7-31.8
	c0-0.3,0-222.2,0-222.5c0-36.9,29.9-66.7,66.7-66.7S-715.7,395.4-715.7,432.2z"/>
</svg>
